<svg width="32" height="32" viewBox="0 0 32 32" xmlns="http://www.w3.org/2000/svg">
  <!-- Exact 3×6 dot matrix from original - P shape in red on dark -->
  <!-- Left column (x=2) -->
  <circle cx="2" cy="2" r="1.5" fill="#34343a"/>
  <circle cx="2" cy="7" r="1.5" fill="#e5484d"/>
  <circle cx="2" cy="12" r="1.5" fill="#e5484d"/>
  <circle cx="2" cy="17" r="1.5" fill="#e5484d"/>
  <circle cx="2" cy="22" r="1.5" fill="#e5484d"/>
  <circle cx="2" cy="27" r="1.5" fill="#e5484d"/>
  <!-- Middle column (x=9) -->
  <circle cx="9" cy="2" r="1.5" fill="#34343a"/>
  <circle cx="9" cy="7" r="1.5" fill="#34343a"/>
  <circle cx="9" cy="12" r="1.5" fill="#e5484d"/>
  <circle cx="9" cy="17" r="1.5" fill="#34343a"/>
  <circle cx="9" cy="22" r="1.5" fill="#34343a"/>
  <circle cx="9" cy="27" r="1.5" fill="#e5484d"/>
  <!-- Right column (x=16) -->
  <circle cx="16" cy="2" r="1.5" fill="#34343a"/>
  <circle cx="16" cy="7" r="1.5" fill="#34343a"/>
  <circle cx="16" cy="12" r="1.5" fill="#34343a"/>
  <circle cx="16" cy="17" r="1.5" fill="#34343a"/>
  <circle cx="16" cy="22" r="1.5" fill="#34343a"/>
  <circle cx="16" cy="27" r="1.5" fill="#e5484d"/>
  <!-- Extended pattern for wider grid (x=23) -->
  <circle cx="23" cy="2" r="1.5" fill="#e5484d"/>
  <circle cx="23" cy="7" r="1.5" fill="#e5484d"/>
  <circle cx="23" cy="12" r="1.5" fill="#e5484d"/>
  <circle cx="23" cy="17" r="1.5" fill="#e5484d"/>
  <circle cx="23" cy="22" r="1.5" fill="#e5484d"/>
  <circle cx="23" cy="27" r="1.5" fill="#e5484d"/>
  <!-- Extended pattern (x=30) -->
  <circle cx="30" cy="2" r="1.5" fill="#e5484d"/>
  <circle cx="30" cy="7" r="1.5" fill="#34343a"/>
  <circle cx="30" cy="12" r="1.5" fill="#34343a"/>
  <circle cx="30" cy="17" r="1.5" fill="#e5484d"/>
  <circle cx="30" cy="22" r="1.5" fill="#34343a"/>
  <circle cx="30" cy="27" r="1.5" fill="#e5484d"/>
</svg>
